<?xml version="1.0" standalone="no"?>
<!DOCTYPE svg PUBLIC "-//W3C//DTD SVG 20010904//EN"
 "http://www.w3.org/TR/2001/REC-SVG-20010904/DTD/svg10.dtd">
<svg version="1.0" xmlns="http://www.w3.org/2000/svg"
 width="182.000000pt" height="277.000000pt" viewBox="0 0 182.000000 277.000000"
 preserveAspectRatio="xMidYMid meet">

<g transform="translate(0.000000,277.000000) scale(0.100000,-0.100000)"
fill="#000000" stroke="none">
<path d="M830 2617 c-55 -19 -80 -79 -88 -219 -15 -228 14 -319 122 -383 15
-8 16 -20 10 -75 -6 -65 -6 -65 -55 -95 -28 -16 -57 -40 -66 -54 l-16 -24 -22
37 c-12 20 -32 47 -45 61 -21 22 -22 27 -10 76 33 136 -33 325 -139 396 -101
68 -222 46 -273 -49 -18 -34 -23 -59 -23 -123 0 -91 19 -154 70 -225 26 -38
30 -50 23 -70 -5 -14 -8 -52 -6 -86 7 -112 92 -250 213 -345 38 -30 65 -58 65
-69 0 -10 5 -22 10 -25 6 -3 10 -12 10 -18 0 -8 -3 -8 -9 1 -6 11 -11 10 -25
-3 -13 -14 -16 -14 -16 -2 0 9 6 18 13 20 8 4 7 6 -4 6 -21 1 -39 -19 -39 -44
-1 -20 -1 -20 -15 -1 -8 11 -15 16 -15 11 0 -22 57 -78 103 -101 93 -48 320
-49 444 -3 32 12 66 22 75 22 9 1 14 5 11 10 -3 5 -1 12 4 16 5 3 17 17 26 30
l16 24 5 -24 c3 -13 7 -37 9 -54 3 -21 4 -17 6 15 1 33 4 41 11 30 15 -24 11
2 -5 30 -8 14 -14 19 -15 11 0 -8 -3 -11 -7 -8 -3 4 -15 -1 -26 -10 -18 -17
-18 -17 -7 8 9 20 19 26 45 26 20 0 36 -6 39 -14 3 -8 1 -11 -4 -8 -6 3 -10 2
-10 -4 0 -5 5 -13 10 -16 16 -10 11 -46 -12 -95 -17 -37 -21 -61 -19 -130 1
-62 -1 -81 -9 -70 -7 11 -8 -22 -4 -111 5 -80 3 -128 -3 -132 -6 -4 -8 -53 -5
-129 4 -99 1 -131 -12 -162 -20 -47 -14 -60 8 -17 10 18 16 58 17 103 1 69 2
71 10 28 4 -25 8 -82 8 -127 1 -81 1 -82 -31 -106 -18 -14 -60 -38 -94 -55
-176 -88 -373 -88 -552 0 l-64 31 5 181 c3 105 2 151 -2 111 -5 -47 -8 8 -8
165 0 291 4 350 23 350 21 0 17 11 -16 50 -56 65 -49 156 17 217 29 28 32 33
14 33 -85 0 -128 -192 -59 -266 18 -20 19 -28 9 -117 -6 -53 -11 -240 -11
-416 l0 -320 84 -41 c113 -55 205 -73 331 -67 132 7 265 56 360 131 l29 23
-12 385 -13 385 26 50 c37 75 34 129 -10 188 l-36 46 47 87 c80 148 94 170
117 176 44 11 107 91 178 227 39 74 71 147 71 163 1 35 -41 76 -78 76 -81 0
-257 -145 -300 -247 -20 -46 -18 -106 5 -134 18 -22 18 -24 -13 -83 l-31 -61
-7 61 c-13 123 -92 214 -184 214 -25 0 -30 14 -15 40 7 10 29 14 73 15 136 2
233 96 273 267 31 134 12 235 -55 291 -44 37 -73 48 -225 85 -173 42 -184 43
-225 29z m244 -62 c207 -51 248 -87 247 -223 -1 -175 -87 -323 -207 -358 -32
-9 -67 -13 -88 -9 -34 7 -35 6 -47 -33 -10 -36 -15 -40 -53 -45 -22 -3 -41 -5
-43 -4 -1 1 6 33 15 71 12 52 14 70 5 73 -36 12 -80 54 -102 98 -25 47 -26 57
-26 210 0 139 3 165 20 200 37 75 50 76 279 20z m-624 -215 c73 -20 143 -115
175 -237 17 -64 20 -193 6 -193 -6 0 -25 9 -43 19 -57 34 -122 45 -173 31 -24
-7 -52 -21 -61 -31 -9 -11 -20 -19 -24 -19 -4 0 -18 24 -30 53 -107 246 -34
428 150 377z m1124 -246 c9 -8 16 -22 16 -29 0 -8 -32 -74 -70 -147 -74 -140
-137 -218 -177 -218 -19 0 -34 -24 -102 -162 -44 -90 -88 -189 -98 -220 -17
-53 -40 -78 -73 -78 -12 0 34 108 141 330 50 102 85 186 79 188 -49 17 -53
113 -7 144 6 3 12 15 13 25 4 24 129 143 174 165 44 22 84 23 104 2z m-1003
-191 c124 -67 183 -215 145 -363 -9 -36 -23 -74 -31 -86 -12 -19 -9 -33 26
-130 37 -102 59 -145 59 -115 0 8 7 11 18 7 12 -4 11 -1 -5 13 -12 10 -19 21
-16 25 4 3 0 6 -7 6 -7 0 -10 3 -7 7 4 3 19 -4 33 -18 21 -19 24 -20 18 -5 -5
13 -4 17 3 13 11 -7 26 19 18 32 -2 4 3 8 11 8 10 0 13 -6 8 -16 -10 -24 -11
-65 -1 -78 10 -14 -140 -18 -162 -3 -8 4 -20 30 -27 57 -31 120 -52 158 -114
206 -72 57 -129 127 -172 214 -55 112 -42 210 33 251 35 19 111 8 170 -25z
m506 -64 c20 -12 43 -41 59 -75 54 -110 16 -251 -99 -364 -60 -59 -60 -59 -65
-128 -4 -68 -5 -70 -35 -76 -64 -13 -62 -15 -59 87 l4 93 -51 31 c-65 41 -92
83 -80 126 12 43 11 159 -1 193 -9 23 -7 31 12 51 28 30 111 71 168 82 57 12
106 5 147 -20z m-314 -411 c19 -18 48 -43 63 -55 15 -13 22 -23 16 -23 -6 0
-9 -6 -6 -14 3 -8 1 -17 -5 -21 -7 -4 -8 0 -4 11 5 13 2 16 -8 12 -8 -3 -20 0
-26 8 -10 10 -8 14 10 17 12 2 4 5 -18 5 -22 0 -34 -2 -27 -5 17 -7 15 -23 -4
-23 -20 0 -47 66 -40 96 4 13 8 24 10 24 2 0 20 -15 39 -32z m327 -48 c0 -5
-4 -10 -10 -10 -5 0 -10 5 -10 10 0 6 5 10 10 10 6 0 10 -4 10 -10z m110 -21
c0 -5 -4 -9 -10 -9 -5 0 -10 7 -10 16 0 8 5 12 10 9 6 -3 10 -10 10 -16z
m-120 -7 c0 -4 -9 -13 -20 -20 -22 -13 -27 -3 -8 16 14 14 28 16 28 4z m-486
-48 c3 -8 2 -12 -4 -9 -6 3 -10 10 -10 16 0 14 7 11 14 -7z m166 12 c0 -3 -4
-8 -10 -11 -5 -3 -10 -1 -10 4 0 6 5 11 10 11 6 0 10 -2 10 -4z m-170 -40 c0
5 8 -3 18 -19 10 -15 22 -24 27 -20 4 5 5 2 1 -5 -7 -12 -13 -10 -85 44 -1 1
0 8 5 15 5 9 11 7 21 -6 7 -11 13 -15 13 -9z m430 -25 c-9 -17 -8 -20 5 -15 8
4 15 2 15 -4 0 -14 -28 -23 -35 -11 -4 5 -1 23 7 39 7 17 14 26 16 21 2 -6 -2
-19 -8 -30z"/>
<path d="M992 2379 c-1 -69 -7 -151 -13 -183 -14 -75 -5 -97 10 -25 7 32 10
113 8 195 l-3 139 -2 -126z"/>
<path d="M912 2444 c-1 -11 -4 -72 -6 -135 -3 -85 -2 -104 5 -74 5 22 8 83 6
135 -1 52 -4 86 -5 74z"/>
<path d="M1080 2435 c-2 -11 -3 -69 -4 -130 -1 -60 -5 -130 -9 -155 -6 -38 -6
-41 4 -20 12 26 25 270 16 305 l-5 20 -2 -20z"/>
<path d="M822 2350 c-1 -36 -5 -76 -8 -90 -5 -19 -4 -22 5 -14 8 7 11 38 8 90
l-3 79 -2 -65z"/>
<path d="M1161 2340 c-1 -30 -8 -91 -16 -135 -17 -94 -18 -105 -6 -86 14 22
33 170 28 226 l-3 50 -3 -55z"/>
<path d="M1232 2270 c-1 -25 -5 -63 -8 -85 -4 -32 -3 -36 6 -23 6 10 9 47 7
85 -2 48 -4 55 -5 23z"/>
<path d="M1120 2050 c-19 -11 -31 -19 -27 -20 11 0 67 29 67 35 0 7 -1 7 -40
-15z"/>
<path d="M1085 2005 c-25 -12 -26 -14 -5 -9 14 4 29 10 35 15 12 12 5 11 -30
-6z"/>
<path d="M951 1968 c0 -9 -4 -25 -7 -35 -5 -17 -5 -17 6 0 6 10 9 25 7 35 -4
15 -5 15 -6 0z"/>
<path d="M503 2265 c20 -14 37 -30 37 -36 0 -6 -5 -7 -12 -3 -9 6 7 -27 37
-73 1 -2 2 11 2 29 0 23 -10 41 -39 70 -21 21 -44 38 -50 38 -7 0 4 -11 25
-25z m57 -66 c0 -6 -4 -7 -10 -4 -5 3 -10 11 -10 16 0 6 5 7 10 4 6 -3 10 -11
10 -16z"/>
<path d="M393 2210 c0 -19 2 -29 4 -22 8 22 23 13 23 -15 0 -21 -3 -24 -12
-15 -7 7 -17 12 -22 12 -6 0 0 -7 12 -16 26 -18 30 -54 5 -55 -18 -1 42 -27
65 -28 15 -1 17 65 2 74 -17 11 -11 25 8 18 16 -7 16 -6 0 10 -10 10 -31 22
-47 28 -16 6 -32 18 -34 27 -2 9 -4 1 -4 -18z m57 -51 c0 -10 -4 -19 -10 -19
-5 0 -10 12 -10 26 0 14 4 23 10 19 6 -3 10 -15 10 -26z m0 -49 c0 -11 -4 -20
-10 -20 -5 0 -10 9 -10 20 0 11 5 20 10 20 6 0 10 -9 10 -20z m17 -22 c-3 -8
-6 -5 -6 6 -1 11 2 17 5 13 3 -3 4 -12 1 -19z"/>
<path d="M310 2044 c0 -11 38 -74 45 -74 2 0 -5 17 -17 38 -27 46 -28 48 -28
36z"/>
<path d="M320 1976 c0 -2 8 -10 18 -17 15 -13 16 -12 3 4 -13 16 -21 21 -21
13z"/>
<path d="M1542 2020 c0 -14 2 -19 5 -12 2 6 2 18 0 25 -3 6 -5 1 -5 -13z"/>
<path d="M1520 2009 c0 -8 -9 -32 -19 -52 -12 -24 -14 -34 -6 -27 17 14 40 79
31 87 -3 4 -6 0 -6 -8z"/>
<path d="M1360 1976 c-20 -13 -42 -31 -50 -41 -12 -14 41 18 99 62 2 2 0 3 -5
2 -5 0 -25 -11 -44 -23z"/>
<path d="M1330 1909 l-39 -41 25 -24 c14 -15 21 -30 17 -37 -5 -8 -9 -7 -11 6
-2 9 -7 17 -12 17 -15 0 -22 -19 -15 -41 7 -20 9 -19 44 15 30 29 38 45 40 78
l2 42 -21 -23 c-11 -14 -23 -21 -27 -17 -4 3 6 20 22 36 16 17 26 30 22 30 -4
0 -25 -18 -47 -41z m34 -46 c-9 -38 -9 -38 -34 -13 -12 12 -19 25 -15 28 3 4
10 0 14 -7 7 -10 11 -10 22 3 19 21 20 20 13 -11z m-50 -58 c3 -8 1 -15 -4
-15 -6 0 -10 7 -10 15 0 8 2 15 4 15 2 0 6 -7 10 -15z"/>
<path d="M468 1875 c17 -8 32 -17 32 -20 0 -3 -4 -4 -9 -1 -5 3 -11 -4 -15
-17 -5 -18 -8 -20 -16 -7 -7 12 -10 8 -10 -16 0 -51 64 -167 121 -218 28 -26
55 -46 60 -46 5 0 9 -21 10 -47 1 -45 1 -46 10 -18 10 33 4 117 -12 180 -32
118 -121 226 -186 225 -11 -1 -5 -6 15 -15z m86 -59 c26 -35 67 -127 65 -149
0 -8 -2 -7 -6 2 -5 11 -7 11 -15 0 -6 -10 -8 -7 -7 11 2 44 -2 56 -11 32 -5
-12 -7 -28 -4 -36 4 -10 0 -14 -13 -12 -10 2 -12 1 -5 -1 6 -3 12 -10 12 -18
0 -7 10 -15 22 -19 18 -4 20 -8 10 -18 -9 -9 -19 -5 -46 21 -41 39 -90 126
-82 146 2 7 0 15 -7 18 -7 2 -7 6 -1 9 5 4 17 -7 27 -23 9 -17 12 -27 7 -24
-14 9 -12 -3 2 -19 11 -11 15 -11 26 3 7 9 11 10 7 3 -4 -7 -1 -20 6 -28 10
-12 9 -13 -7 -8 -18 5 -18 4 1 -11 19 -15 20 -14 29 20 9 40 2 70 -15 59 -8
-4 -9 -3 -5 4 4 7 2 12 -3 12 -6 0 -11 7 -11 15 0 9 -7 18 -15 21 -8 4 -12 10
-9 15 9 16 21 10 48 -25z m72 -212 c-5 -17 -3 -23 4 -19 5 3 10 -1 10 -9 0
-13 -3 -14 -18 -5 -16 10 -17 16 -8 35 14 31 20 30 12 -2z"/>
<path d="M361 1774 c0 -11 3 -14 6 -6 3 7 2 16 -1 19 -3 4 -6 -2 -5 -13z"/>
<path d="M371 1740 c-1 -22 53 -112 83 -137 33 -29 33 -23 0 27 -15 22 -31 37
-37 33 -6 -4 -8 0 -4 11 5 11 3 15 -5 10 -8 -5 -9 -2 -5 10 4 9 3 15 -2 11 -5
-3 -14 7 -19 22 -6 16 -11 21 -11 13z"/>
<path d="M692 1670 c0 -14 2 -19 5 -12 2 6 2 18 0 25 -3 6 -5 1 -5 -13z"/>
<path d="M702 1605 c0 -16 2 -22 5 -12 2 9 2 23 0 30 -3 6 -5 -1 -5 -18z"/>
<path d="M687 1285 c9 -19 18 -33 21 -31 4 5 -26 66 -33 66 -3 0 3 -16 12 -35z"/>
<path d="M873 1791 c-30 -19 -80 -97 -70 -108 3 -2 8 5 12 17 11 35 64 88 94
95 35 7 105 -19 98 -37 -2 -7 -12 -12 -21 -10 -16 3 -16 1 -2 -21 9 -13 13
-27 9 -32 -5 -4 -3 -5 4 -1 6 3 19 -4 29 -16 14 -20 15 -20 9 -3 -4 11 -8 25
-9 32 -1 7 -5 16 -9 19 -10 11 -9 24 3 24 6 0 10 -7 10 -15 0 -8 5 -15 11 -15
5 0 7 -4 4 -10 -3 -5 -2 -10 3 -10 5 0 9 -6 10 -12 1 -7 6 -38 11 -68 l8 -55
1 55 c3 135 -111 230 -205 171z"/>
<path d="M791 1774 c-12 -15 -21 -32 -21 -38 0 -6 6 -2 12 9 6 11 18 28 26 38
8 9 12 17 9 17 -3 0 -15 -12 -26 -26z"/>
<path d="M1097 1760 c7 -8 16 -27 22 -40 6 -17 10 -19 10 -8 1 9 -9 27 -21 40
-13 13 -18 17 -11 8z"/>
<path d="M812 1535 c-31 -35 50 -105 121 -105 25 0 49 5 53 12 5 8 -2 9 -26 5
-25 -6 -31 -4 -27 7 8 20 -16 39 -30 25 -6 -6 -9 -18 -6 -26 5 -13 2 -13 -15
-4 -28 15 -36 30 -13 24 13 -3 23 2 31 17 7 13 7 20 2 16 -6 -3 -12 -1 -14 6
-3 7 -7 5 -11 -6 -5 -11 -3 -15 5 -10 7 4 8 3 4 -4 -4 -6 -13 -9 -22 -5 -10 4
-12 9 -4 18 14 16 0 28 -17 13 -18 -15 -29 -2 -13 17 16 19 -1 19 -18 0z"/>
<path d="M912 1260 c0 -19 2 -27 5 -17 2 9 2 25 0 35 -3 9 -5 1 -5 -18z"/>
<path d="M931 1224 c0 -11 3 -14 6 -6 3 7 2 16 -1 19 -3 4 -6 -2 -5 -13z"/>
<path d="M1173 1230 c0 -25 2 -35 4 -22 2 12 2 32 0 45 -2 12 -4 2 -4 -23z"/>
<path d="M462 1240 c0 -14 2 -19 5 -12 2 6 2 18 0 25 -3 6 -5 1 -5 -13z"/>
<path d="M480 1213 c0 -18 5 -33 10 -33 13 0 13 30 0 50 -7 11 -10 7 -10 -17z"/>
<path d="M1111 1205 c0 -11 4 -27 9 -35 9 -13 10 -13 9 0 0 8 -4 24 -9 35 l-9
20 0 -20z"/>
<path d="M1142 1200 c0 -14 2 -19 5 -12 2 6 2 18 0 25 -3 6 -5 1 -5 -13z"/>
<path d="M1086 1185 c8 -37 14 -45 14 -19 0 10 -5 26 -10 34 -8 11 -9 7 -4
-15z"/>
<path d="M520 1178 c0 -17 3 -19 9 -10 7 11 10 10 15 -3 9 -24 8 -27 -6 -19
-7 4 -9 3 -5 -1 4 -5 14 -10 22 -11 11 -2 11 4 -2 32 -19 39 -33 44 -33 12z"/>
<path d="M1061 1185 c1 -19 18 -51 18 -35 0 8 -4 22 -9 30 -5 8 -9 11 -9 5z"/>
<path d="M590 1145 c13 -14 26 -25 28 -25 3 0 -5 11 -18 25 -13 14 -26 25 -28
25 -3 0 5 -11 18 -25z"/>
<path d="M1002 1150 c0 -14 2 -19 5 -12 2 6 2 18 0 25 -3 6 -5 1 -5 -13z"/>
<path d="M1022 1145 c0 -16 2 -22 5 -12 2 9 2 23 0 30 -3 6 -5 -1 -5 -18z"/>
<path d="M619 1147 c14 -18 51 -42 51 -33 0 3 -15 15 -32 27 -24 17 -29 18
-19 6z"/>
<path d="M1052 1140 c0 -14 2 -19 5 -12 2 6 2 18 0 25 -3 6 -5 1 -5 -13z"/>
<path d="M480 1023 c0 -98 9 -110 11 -15 1 34 6 62 11 62 6 0 8 -6 5 -14 -5
-12 17 -15 65 -7 4 1 5 10 3 21 -2 13 2 20 11 20 15 0 19 -15 7 -23 -5 -2 -1
-1 7 2 8 2 65 6 125 9 61 2 124 7 140 12 18 5 -27 6 -111 3 -89 -4 -147 -2
-159 4 -14 8 -22 7 -33 -3 -7 -8 -18 -12 -23 -9 -5 4 -9 2 -9 -3 0 -6 -9 -8
-20 -5 -23 6 -26 19 -7 26 7 3 5 6 -5 6 -16 1 -18 -9 -18 -86z"/>
<path d="M1083 1030 c0 -25 2 -35 4 -22 2 12 2 32 0 45 -2 12 -4 2 -4 -23z"/>
<path d="M596 1048 c-10 -6 -33 -11 -50 -12 l-31 -2 4 -59 c1 -33 5 -62 8 -65
3 -3 3 23 1 58 -2 34 -1 62 4 62 4 0 8 -7 8 -16 0 -8 5 -12 11 -8 8 4 8 1 2
-12 -4 -11 -6 -73 -3 -139 l6 -120 2 103 c3 144 22 132 24 -15 l2 -118 7 125
c5 69 8 137 8 153 1 15 4 27 9 27 4 0 17 7 28 15 17 14 17 14 -11 3 -16 -6
-36 -17 -44 -22 -11 -9 -13 -7 -9 4 2 8 14 20 26 26 13 6 25 14 29 18 10 10
-10 6 -31 -6z m-19 -90 c-3 -7 -5 -2 -5 12 0 14 2 19 5 13 2 -7 2 -19 0 -25z"/>
<path d="M1061 1034 c0 -11 3 -14 6 -6 3 7 2 16 -1 19 -3 4 -6 -2 -5 -13z"/>
<path d="M999 1026 c5 -6 11 -20 14 -31 3 -14 5 -10 6 11 1 21 -4 31 -14 31
-9 0 -11 -4 -6 -11z"/>
<path d="M1043 1000 c0 -25 2 -35 4 -22 2 12 2 32 0 45 -2 12 -4 2 -4 -23z"/>
<path d="M1133 960 c0 -41 2 -58 4 -37 2 20 2 54 0 75 -2 20 -4 3 -4 -38z"/>
<path d="M1113 955 c0 -38 2 -53 4 -32 2 20 2 52 0 70 -2 17 -4 1 -4 -38z"/>
<path d="M617 985 c-1 -5 0 -28 4 -50 l6 -40 2 42 c1 28 7 45 19 52 15 9 14
10 -5 8 -12 -1 -24 -6 -26 -12z"/>
<path d="M1163 920 c0 -36 2 -50 4 -32 2 17 2 47 0 65 -2 17 -4 3 -4 -33z"/>
<path d="M507 750 c3 -107 9 -215 14 -240 9 -50 2 152 -11 330 -6 77 -7 53 -3
-90z"/>
<path d="M495 433 c4 -20 3 -33 -3 -33 -6 0 -4 -13 4 -30 22 -43 36 -47 19 -5
-10 21 -11 35 -5 35 6 0 14 -8 17 -17 7 -19 43 -69 43 -60 0 3 -18 36 -41 74
-32 55 -39 62 -34 36z"/>
<path d="M1101 387 c-19 -29 -27 -46 -18 -38 19 15 61 80 56 86 -2 2 -19 -20
-38 -48z"/>
<path d="M550 415 c0 -12 58 -115 65 -115 6 0 -16 45 -46 94 -10 17 -19 27
-19 21z"/>
<path d="M1159 394 c-13 -15 -44 -40 -68 -55 -53 -34 -43 -39 13 -6 21 12 50
37 64 55 30 39 25 42 -9 6z"/>
<path d="M590 405 c0 -13 68 -115 77 -115 4 0 2 5 -5 12 -27 27 -9 29 20 2 27
-24 25 -21 -7 17 -22 25 -43 44 -47 42 -4 -2 -14 9 -22 24 -8 15 -15 23 -16
18z"/>
<path d="M698 319 c12 -14 22 -31 22 -37 0 -7 3 -11 8 -10 4 1 18 -4 32 -11
14 -8 23 -12 20 -9 -47 43 -100 86 -82 67z"/>
</g>
</svg>
